HIERARCHY
ROOT hip
{
	OFFSET 0.000000 0.000000 0.000000 
	CHANNELS 6 Xposition Yposition Zposition Xrotation Zrotation Yrotation
	JOINT abdomen
	{
		OFFSET 0.000000 3.402643 0.000000 
		CHANNELS 3 Xrotation Zrotation Yrotation
		JOINT chest
		{
			OFFSET 0.000000 8.438565 -0.680529 
			CHANNELS 3 Xrotation Zrotation Yrotation
			JOINT neck
			{
				OFFSET 0.000000 10.207942 -0.272212 
				CHANNELS 3 Xrotation Zrotation Yrotation
				JOINT head
				{
					OFFSET 0.000000 3.130431 0.000000 
					CHANNELS 3 Xrotation Zrotation Yrotation
					End Site
					{
						OFFSET 0.000000 3.130435 0.000000 
					}
				}
			}
			JOINT lCollar
			{
				OFFSET 3.470700 6.669187 -0.816635 
				CHANNELS 3 Yrotation Zrotation Xrotation
				JOINT lShldr
				{
					OFFSET 3.198488 0.000000 0.000000 
					CHANNELS 3 Zrotation Yrotation Xrotation
					JOINT lForeArm
					{
						OFFSET 10.139888 0.000000 0.000000 
						CHANNELS 3 Yrotation Zrotation Xrotation
						JOINT lHand
						{
							OFFSET 8.370511 0.000000 0.000000 
							CHANNELS 3 Zrotation Yrotation Xrotation
							End Site
							{
								OFFSET 4.083176 0.000000 0.000000 
							}
						}
					}
				}
			}
			JOINT rCollar
			{
				OFFSET -3.470700 6.669187 -0.816635 
				CHANNELS 3 Yrotation Zrotation Xrotation
				JOINT rShldr
				{
					OFFSET -3.198488 0.000000 0.000000 
					CHANNELS 3 Zrotation Yrotation Xrotation
					JOINT rForeArm
					{
						OFFSET -10.139888 0.000000 0.000000 
						CHANNELS 3 Yrotation Zrotation Xrotation
						JOINT rHand
						{
							OFFSET -8.370511 0.000000 0.000000 
							CHANNELS 3 Zrotation Yrotation Xrotation
							End Site
							{
								OFFSET -4.083176 0.000000 0.000000 
							}
						}
					}
				}
			}
		}
	}
	JOINT lThigh
	{
		OFFSET 5.308129 -1.633274 1.361059 
		CHANNELS 3 Xrotation Zrotation Yrotation
		JOINT lShin
		{
			OFFSET -2.041588 -20.007561 0.000000 
			CHANNELS 3 Xrotation Zrotation Yrotation
			JOINT lFoot
			{
				OFFSET 0.000000 -19.190928 -1.224953 
				CHANNELS 3 Xrotation Yrotation Zrotation
				End Site
				{
					OFFSET 0.000000 -2.449906 4.627600 
				}
			}
		}
	}
	JOINT rThigh
	{
		OFFSET -5.308129 -1.633274 1.361059 
		CHANNELS 3 Xrotation Zrotation Yrotation
		JOINT rShin
		{
			OFFSET 2.041588 -20.007561 0.000000 
			CHANNELS 3 Xrotation Zrotation Yrotation
			JOINT rFoot
			{
				OFFSET 0.000000 -19.190928 -1.224953 
				CHANNELS 3 Xrotation Yrotation Zrotation
				End Site
				{
					OFFSET 0.000000 -2.449906 4.627600 
				}
			}
		}
	}
}
MOTION
Frames: 10
Frame Time: 0.011111
22.962212 52.462337 24.217457 -1.129898 6.181121 -94.035454 30.991587 -9.041154 -10.011128 -22.290867 3.928460 -1.777749 -13.684997 -8.342887 -5.281476 29.108667 21.661364 -8.975613 2.424333 -4.683778 1.783845 -68.350761 -38.494278 14.854770 -42.871056 5.722191 5.413214 8.524705 12.647240 -43.362682 -2.738486 -1.140572 2.095526 69.735847 25.143860 12.043587 65.922035 -9.446182 15.128880 -8.534408 -12.637552 27.210796 -9.068646 2.313546 1.589221 25.126451 -5.579789 -4.201590 -45.217907 16.105249 13.877687 -23.913900 -6.924160 26.782948 36.117500 4.942336 5.619025 -18.701929 6.554227 5.096457 
22.925821 52.464134 24.183174 -1.149309 6.170711 -94.031761 31.078051 -8.865119 -10.193307 -22.339354 3.864834 -1.846281 -13.706108 -8.384805 -5.278391 29.014807 21.738287 -8.984578 2.424333 -4.683778 1.783845 -68.306740 -38.729378 14.814544 -42.676502 5.653468 5.342396 8.524705 12.647240 -43.479866 -2.738486 -1.140572 2.095526 69.645058 25.086990 11.278708 66.197533 -9.435772 15.255531 -8.534408 -12.637552 27.533064 -8.995279 2.321616 1.477636 25.075058 -5.586314 -4.198594 -45.210442 16.206778 13.922252 -24.006622 -7.052216 26.940132 35.710747 4.971398 5.562486 -19.413502 5.119644 4.576144 
22.869286 52.473160 24.166935 -1.137023 6.151892 -94.003365 31.112583 -8.582412 -10.364820 -22.270308 3.784495 -1.925435 -13.707476 -8.422753 -5.269238 28.696472 21.780224 -9.002966 2.424333 -4.683778 1.783845 -68.385201 -39.060261 14.529291 -42.483582 5.597899 5.274536 8.524705 12.647240 -43.743538 -2.738486 -1.140572 2.095526 69.366402 25.072758 10.702455 66.495056 -9.425103 15.395245 -8.534408 -12.637552 28.109236 -8.819429 2.350824 1.429178 24.901070 -5.606053 -4.177047 -45.069012 16.459911 13.979048 -24.020878 -7.178266 27.029819 35.332676 5.000800 5.528854 -20.177441 3.411326 3.953127 
22.826883 52.491505 24.154305 -1.232222 6.069902 -94.054924 31.303921 -8.444259 -10.453874 -22.338778 3.790405 -1.959715 -13.783821 -8.632091 -5.266666 28.590172 21.955835 -9.056905 2.424333 -4.683778 1.783845 -68.591988 -39.320766 14.266584 -42.370827 5.553859 5.226937 8.524705 12.647240 -44.222061 -2.738486 -1.140572 2.095526 68.977325 25.011690 9.971666 66.687012 -9.419664 15.492300 -8.534408 -12.637552 28.245953 -8.542340 2.264847 1.621676 24.672497 -5.595817 -4.164523 -44.860649 16.662130 13.966131 -24.069777 -7.412576 26.960829 34.985489 5.020786 5.484385 -20.793434 1.697994 3.271692 
22.789291 52.517067 24.137762 -1.304038 6.036744 -94.171974 31.446583 -8.369629 -10.462342 -22.445787 3.679463 -1.960968 -13.691739 -8.526679 -5.376394 28.244894 21.915636 -9.275822 2.424333 -4.683778 1.783845 -68.569405 -39.604378 14.477160 -42.136951 5.480683 5.145098 8.524705 12.647240 -44.339241 -2.738486 -1.140572 2.095526 68.847054 24.965279 9.025440 66.741013 -9.419234 15.517896 -8.534408 -12.637552 28.021345 -8.293198 2.224344 1.814386 24.420216 -5.609978 -4.105652 -44.881683 16.594629 13.932145 -24.163576 -7.628327 26.790064 34.637032 5.055261 5.424492 -21.299973 0.184893 2.677056 
22.741476 52.536915 24.111599 -1.416278 6.069762 -94.333549 31.416927 -8.366806 -10.471045 -22.425896 3.621097 -1.966297 -13.611032 -8.462470 -5.445673 27.877642 21.792192 -9.455316 2.424333 -4.683778 1.783845 -68.556602 -39.878075 14.805205 -41.974121 5.427516 5.089651 8.524705 12.647240 -44.309948 -2.738486 -1.140572 2.095526 68.658707 24.988300 8.090978 66.824844 -9.413072 15.555814 -8.534408 -12.637552 28.001810 -8.104283 2.187176 2.235411 24.115868 -5.629066 -4.062717 -44.602196 16.764036 13.860409 -24.399164 -7.823333 26.564844 34.338928 5.075107 5.384956 -21.856575 -1.304404 2.056942 
22.687044 52.558567 24.074909 -1.474887 6.045694 -94.515320 31.477753 -8.313863 -10.511992 -22.485262 3.745842 -1.976992 -13.665108 -8.601562 -5.453397 27.871103 21.824738 -9.516416 2.424333 -4.683778 1.783845 -68.720299 -40.012264 14.955300 -41.953396 5.415169 5.074215 8.524705 12.647240 -44.153698 -2.738486 -1.140572 2.095526 68.272247 25.044216 7.110347 66.868286 -9.413433 15.580370 -8.534408 -12.637552 28.187355 -7.826995 2.195792 2.582734 23.812632 -5.638779 -4.037347 -44.295269 17.023567 13.812567 -24.502695 -7.960715 26.273323 33.991398 5.094372 5.339847 -22.369631 -2.981844 1.358162 
22.630806 52.581722 24.044537 -1.442056 5.946809 -94.714386 31.619467 -8.154734 -10.489944 -22.573269 3.742251 -1.992481 -13.814361 -8.661706 -5.455790 28.061567 21.889412 -9.532320 2.424333 -4.683778 1.783845 -68.937500 -40.272575 14.279251 -41.801003 5.367727 5.025942 8.524705 12.647240 -44.827526 -2.738486 -1.140572 2.095526 67.895897 25.109615 6.213791 67.004433 -9.402218 15.635184 -8.534408 -12.637552 28.743998 -7.501422 2.272470 2.644018 23.497299 -5.657859 -4.003122 -44.261650 17.192709 13.901699 -24.522833 -7.980099 25.815031 33.674206 5.104639 5.305441 -22.761898 -4.715632 0.653898 
22.570662 52.606380 24.029200 -1.368240 5.947358 -94.922920 31.615870 -7.830677 -10.413362 -22.563232 3.702488 -2.009139 -13.875877 -8.733279 -5.428997 27.963455 21.803473 -9.525723 2.424333 -4.683778 1.783845 -69.218651 -40.668594 13.422465 -41.506355 5.270142 4.922661 8.524705 12.647240 -45.735729 -2.738486 -1.140572 2.095526 67.441223 25.234900 5.402217 67.122414 -9.400273 15.705643 -8.534408 -12.637552 29.222517 -7.265362 2.392634 2.877070 23.192495 -5.676006 -3.949118 -44.032242 17.505877 13.947166 -24.624125 -7.969472 25.262163 33.325100 5.128675 5.281031 -22.981953 -6.216158 0.045889 
22.503298 52.634956 24.009651 -1.443907 5.921453 -95.171989 31.613600 -7.736846 -10.402360 -22.524691 3.810563 -2.022357 -13.919501 -8.848162 -5.383064 27.822414 21.747938 -9.494205 2.424333 -4.683778 1.783845 -69.445107 -40.889633 13.596348 -41.496014 5.263875 4.915027 8.524705 12.647240 -45.599010 -2.738486 -1.140572 2.095526 66.916428 25.341719 4.699670 67.174751 -9.395270 15.720930 -8.534408 -12.637552 29.427593 -6.954757 2.350176 3.037342 22.913553 -5.663841 -3.922342 -44.065987 17.507252 13.946835 -24.750128 -8.106257 24.686018 32.975723 5.158162 5.238619 -23.376966 -7.514026 -0.510999 
